<svg xmlns="http://www.w3.org/2000/svg" version="1.1" xmlns:xlink="http://www.w3.org/1999/xlink" xmlns:svgjs="http://svgjs.dev/svgjs" width="100%" height="100%" viewBox="0 0 1000 600"><rect width="1000" height="600" x="0" y="0" fill="#17223b"/><g><rect width="333.3333333333333" height="333.3333333333333" rx="13.333333333333334" ry="13.333333333333334" y="226.38427933954569" fill="#6b778d" transform="matrix(0.6122588695074456,0,0,0.6122588695074455,0,59.35110195639493)" x="204.16210937499997"/><path d="M306.44927295314596 353.3553685096568L306.44927295314596 353.3553685096568Q326.6107202022491 353.3553685096568 336.91027284904135 363.12973150307147Q347.1806482928681 372.87491729352075 347.1806482928681 394.72864231461807L347.1806482928681 394.72864231461807L347.1806482928681 468.050953366711L328.915719236517 468.050953366711L328.915719236517 395.983262042131Q328.915719236517 368.90681769022405 303.7066158743968 368.90681769022405L303.7066158743968 368.90681769022405Q285.0040287735645 368.90681769022405 277.8556140470373 379.4106107577741Q270.73637652347566 389.91440382532426 270.73637652347566 409.63819302994614L270.73637652347566 409.63819302994614L270.73637652347566 468.050953366711L252.23802984340122 468.050953366711L252.23802984340122 355.45612712316677L267.14758055872926 355.45612712316677L269.89023763747855 370.7741586800107L270.9406169442335 370.7741586800107Q276.3967538987665 361.9626433844548 286.0544080803195 357.64441734557306Q295.7120622618726 353.3553685096568 306.44927295314596 353.3553685096568ZM384.58582249453275 318.0509529215022L427.4471336507303 318.0509529215022Q455.60313451235766 318.0509529215022 469.98749557430824 326.366455766646Q484.3718566362588 334.65278140882447 484.3718566362588 355.25188670240885L484.3718566362588 355.25188670240885Q484.3718566362588 368.46915964574276 477.01920148897375 377.1931433324025Q469.6665463416887 385.91712701906215 455.8073749331156 388.426366474088L455.8073749331156 388.426366474088L455.8073749331156 389.47674578084303Q465.26078869391074 390.9647831320793 472.9343930738154 394.932882735376Q480.5788202507547 398.93015954163815 485.01375510149796 406.2828146889232Q489.419512749276 413.6354698362083 489.419512749276 425.3938826312713L489.419512749276 425.3938826312713Q489.419512749276 445.7887475040978 475.44363252884125 456.90526183392166Q461.4677523084065 468.050953366711 437.3090282530412 468.050953366711L437.3090282530412 468.050953366711L384.58582249453275 468.050953366711L384.58582249453275 318.0509529215022ZM403.492650016123 381.9198502128L431.2109928332691 381.9198502128Q450.5554783993406 381.9198502128 457.7038931258677 375.7342831841316Q464.82313064942946 369.5195389524978 464.82313064942946 357.3526453159189L464.82313064942946 357.3526453159189Q464.82313064942946 344.9523340556167 456.1283241657352 339.58372870997994Q447.4043404790755 334.24430056730864 428.2932725367274 334.24430056730864L428.2932725367274 334.24430056730864L403.492650016123 334.24430056730864L403.492650016123 381.9198502128ZM432.26137214002404 397.6755398141252L403.492650016123 397.6755398141252L403.492650016123 452.0910233446279L433.7494094912604 452.0910233446279Q453.7066163196056 452.0910233446279 461.4677523084065 444.30071015286154Q469.25806550017285 436.53957416406064 469.25806550017285 423.93502248300047L469.25806550017285 423.93502248300047Q469.25806550017285 412.1766096879374 461.1468030757869 404.9114861495486Q453.06471785436645 397.6755398141252 432.26137214002404 397.6755398141252L432.26137214002404 397.6755398141252Z " fill="#ff6768" transform="matrix(0.6122588695074456,0,0,0.6122588695074455,0,59.35110195639493)"/><path d="M661.4023638339091 344.4740122195629L661.4023638339091 344.4740122195629Q676.49189598066 344.4740122195629 684.2004413465112 351.7894872834725Q691.8871494733654 359.0831251083854 691.8871494733654 375.4392171169476L691.8871494733654 375.4392171169476L691.8871494733654 430.3161987157683L678.2170378614029 430.3161987157683L678.2170378614029 376.37821839380763Q678.2170378614029 356.11326060482804 659.3496633682151 356.11326060482804L659.3496633682151 356.11326060482804Q645.3519931713014 356.11326060482804 640.0018696170988 363.97466664365635Q634.673583301893 371.8360726824846 634.673583301893 386.5980462442844L634.673583301893 386.5980462442844L634.673583301893 430.3161987157683L620.8287737779566 430.3161987157683L620.8287737779566 346.0462934273285L631.9876029052933 346.0462934273285L634.0403033709873 357.51084390061976L634.8264439748701 357.51084390061976Q638.9100076672615 350.9159977236027 646.1381337751842 347.6840863520844Q653.3662598831069 344.4740122195629 661.4023638339091 344.4740122195629ZM750.5419734186231 344.4740122195629L750.5419734186231 344.4740122195629Q761.3950812000054 344.4740122195629 769.1691382828467 349.19085584285983Q776.9650326046848 353.90769946615677 781.1141080140663 362.4678971528809Q785.2850206624447 371.0499320786018 785.2850206624447 382.514482551893L785.2850206624447 382.514482551893L785.2850206624447 390.8563078486497L727.5910352330438 390.8563078486497Q727.8967565789983 405.1596993915178 734.9065102969535 412.62803512840463Q741.8944267759119 420.0963708652915 754.4726764380372 420.0963708652915L754.4726764380372 420.0963708652915Q762.4869431498427 420.0963708652915 768.7105562639151 418.6114386135128Q774.9123321389908 417.10466912273745 781.5071783160078 414.28766529215727L781.5071783160078 414.28766529215727L781.5071783160078 426.3854956963541Q775.0651928119679 429.224336765931 768.7760679809053 430.55640834473246Q762.4869431498427 431.8884799235339 753.8393965071316 431.8884799235339L753.8393965071316 431.8884799235339Q741.8944267759119 431.8884799235339 732.7009491582822 427.01877562725974Q723.5074715406525 422.1490713309856 718.3975576154141 412.4751744554274Q713.2876436901757 402.8012775798693 713.2876436901757 388.8036073829556L713.2876436901757 388.8036073829556Q713.2876436901757 374.9806350980159 717.9171383574857 365.0665285934936Q722.5466330247957 355.15242208897126 730.9758072775394 349.8241357737654Q739.3831442912863 344.4740122195629 750.5419734186231 344.4740122195629ZM750.3891127456459 355.78570201987685L750.3891127456459 355.78570201987685Q740.4750062411235 355.78570201987685 734.7318123849795 362.1621758069265Q729.0104557678322 368.5168123549793 727.8967565789983 379.8503393942901L727.8967565789983 379.8503393942901L770.8287684465994 379.8503393942901Q770.6759077736222 369.1500922858849 765.7843662383513 362.4678971528809Q760.914661942077 355.78570201987685 750.3891127456459 355.78570201987685ZM875.5383294359926 430.16333804279105L861.0820772201473 382.6673432248702Q859.0293767544532 376.2253577208304 857.5444445026745 370.02358184575473Q856.0376750118992 363.7999687316824 855.2515344080163 360.3496849701966L855.2515344080163 360.3496849701966L854.6182544771108 360.3496849701966Q854.0068117852019 363.7999687316824 852.5873912504134 370.02358184575473Q851.167970715625 376.2253577208304 848.9624095769537 382.8420411368442L848.9624095769537 382.8420411368442L833.8728774302028 430.16333804279105L818.1500653525462 430.16333804279105L795.0462664939898 345.8934327543513L809.3496580368579 345.8934327543513L820.9889064221231 390.8563078486497Q822.714048302866 397.60401469864394 824.2863295106316 404.5264194606122Q825.8586107183972 411.4488242225804 826.491890649303 416.0128071729002L826.491890649303 416.0128071729002L827.1033333412117 416.0128071729002Q827.7366132721174 413.3268267763005 828.6101028319872 409.39612375688637Q829.4617551528603 405.46542073747224 830.5754543416942 401.14164741611665Q831.6673162915315 396.8178740947611 832.7810154803656 393.36759033327536L832.7810154803656 393.36759033327536L847.7176869541391 345.8934327543513L862.8072191008902 345.8934327543513L877.2634713167355 393.36759033327536Q878.9886131974783 398.71771388747794 880.648243361231 405.00683871854056Q882.3078735249836 411.2959635496032 882.9193162168925 415.85994649992296L882.9193162168925 415.85994649992296L883.5525961477982 415.85994649992296Q884.0330154057266 411.9292434805088 885.6708083304824 405.00683871854056Q887.330438494235 398.08443395657235 889.2084410479551 390.8563078486497L889.2084410479551 390.8563078486497L901.0005501061975 345.8934327543513L915.1510809760885 345.8934327543513L891.7415607715776 430.16333804279105L875.5383294359926 430.16333804279105ZM985.1175947216601 407.03770194523787L985.1175947216601 407.03770194523787Q985.1175947216601 419.31023026140866 976.0114660600174 425.5993550924713Q966.8835001593778 431.8884799235339 951.4882466666724 431.8884799235339L951.4882466666724 431.8884799235339Q942.6660021119875 431.8884799235339 936.3113655639346 430.4690593887455Q929.9348917768849 429.04963885395705 925.0651874806107 426.5383563693313L925.0651874806107 426.5383563693313L925.0651874806107 413.9601067072061Q930.0877524498621 416.4713891918318 937.2503668407945 418.6114386135128Q944.412981231727 420.7296507961971 951.7939680126269 420.7296507961971L951.7939680126269 420.7296507961971Q962.3195172090581 420.7296507961971 967.036360832355 417.34487875170163Q971.753204455652 413.9601067072061 971.753204455652 408.3042618070491L971.753204455652 408.3042618070491Q971.753204455652 405.1596993915178 970.0280625749091 402.6484169068921Q968.3029206941663 400.1371344222664 963.8262866998335 397.60401469864394Q959.3496527055007 395.09273221401827 951.007827408744 391.94816979848696L951.007827408744 391.94816979848696Q942.8407000239614 388.8036073829556 937.0101572118303 385.65904496742434Q931.2014516386961 382.514482551893 928.0568892231648 378.1251975135472Q924.9123268076336 373.7140752362047 924.9123268076336 366.79167047423647L924.9123268076336 366.79167047423647Q924.9123268076336 356.11326060482804 933.6253851673349 350.2827177926971Q942.360280766033 344.4740122195629 956.5108116359239 344.4740122195629L956.5108116359239 344.4740122195629Q964.2193570017749 344.4740122195629 970.901552134779 345.95894447134157Q977.583747267783 347.4657139621169 983.3924528409171 350.1298571197199L983.3924528409171 350.1298571197199L978.6756092176203 361.13582557407943Q973.3254856634177 358.9302644354082 967.5167800902834 357.35798322764253Q961.7080745171492 355.78570201987685 955.5718103590638 355.78570201987685L955.5718103590638 355.78570201987685Q947.0771243893299 355.78570201987685 942.6004903949971 358.5371941334668Q938.1238564006643 361.28868624705666 938.1238564006643 366.00552987035366L938.1238564006643 366.00552987035366Q938.1238564006643 369.4776508708361 940.1547196273617 371.90158439947487Q942.2074200930557 374.3473551671103 946.989775433343 376.6184280227718Q951.7939680126269 378.91133811743003 959.8082347244324 382.05590053296135L959.8082347244324 382.05590053296135Q967.822501436238 385.0257650365187 973.5001835753916 388.17032745205Q979.1560284755486 391.3148898675813 982.1477302181028 395.81336110091087Q985.1175947216601 400.2899950952436 985.1175947216601 407.03770194523787ZM1048.3364016172372 318.0509530335012L1080.4153057034564 318.0509530335012Q1101.4664040963185 318.0509530335012 1112.2540001607108 324.2745661475735Q1123.019758986106 330.4763420226492 1123.019758986106 345.8934327543513L1123.019758986106 345.8934327543513Q1123.019758986106 355.78570201987685 1117.5167747589262 362.3150364799037Q1112.0137905317465 368.8443709399305 1101.6411020082924 370.7223734936506L1101.6411020082924 370.7223734936506L1101.6411020082924 371.5085140975334Q1108.7163674432381 372.6222132863674 1114.4377240603853 375.59207778992476Q1120.1809179165293 378.5837795324789 1123.4783410050377 384.08676375965865Q1126.7976013325429 389.58974798683846 1126.7976013325429 398.3901553025268L1126.7976013325429 398.3901553025268Q1126.7976013325429 413.6543853612517 1116.337563853102 421.9743734190116Q1105.877526373661 430.3161987157683 1087.796292484356 430.3161987157683L1087.796292484356 430.3161987157683L1048.3364016172372 430.3161987157683L1048.3364016172372 318.0509530335012ZM1062.4869324871283 365.85266919737643L1083.2323095340362 365.85266919737643Q1097.7103989888783 365.85266919737643 1103.038685304084 361.22317453006644Q1108.3888088582867 356.5718426237597 1108.3888088582867 347.4657139621169L1108.3888088582867 347.4657139621169Q1108.3888088582867 338.1848873885003 1101.8594743982599 334.16683541309914Q1095.3519771772299 330.17062067669474 1081.0267483953648 330.17062067669474L1081.0267483953648 330.17062067669474L1062.4869324871283 330.17062067669474L1062.4869324871283 365.85266919737643ZM1084.018450137919 377.64477825561886L1062.4869324871283 377.64477825561886L1062.4869324871283 418.3712289845486L1085.1321493267533 418.3712289845486Q1100.0688208005267 418.3712289845486 1105.877526373661 412.5406861724177Q1111.6862319467955 406.7319805992834 1111.6862319467955 397.29829335268954L1111.6862319467955 397.29829335268954Q1111.6862319467955 388.4978860370012 1105.6373167446968 383.06041352681166Q1099.5884015425986 377.64477825561886 1084.018450137919 377.64477825561886L1084.018450137919 377.64477825561886ZM1169.4020546151928 430.62192006172273L1135.4451479752543 346.0462934273285L1150.2071215370538 346.0462934273285L1168.4630533383329 394.000870264181Q1170.8214751499813 400.2899950952436 1172.6994777037012 406.0331889513876Q1174.5774802574215 411.75454556853487 1175.5383187732782 416.9518084497602L1175.5383187732782 416.9518084497602L1176.149761465187 416.9518084497602Q1177.1105999810438 413.02110543034604 1179.1414632077413 406.64463164329646Q1181.1941636734355 400.2899950952436 1183.3997248121068 393.8480095912038L1183.3997248121068 393.8480095912038L1200.5201201855548 346.0462934273285L1215.4567916593287 346.0462934273285L1179.1414632077413 441.9554471010335Q1174.7521781693954 453.9004168322531 1167.7424244514405 460.9756822671985Q1160.7545079724819 468.050947702144 1148.481979656311 468.050947702144L1148.481979656311 468.050947702144Q1144.704137309874 468.050947702144 1141.8871334792939 467.6578774002026Q1139.0482924097173 467.26480709826114 1137.0174291830199 466.7843878403327L1137.0174291830199 466.7843878403327L1137.0174291830199 455.77841938597317Q1138.7425710637626 456.10597797092436 1141.1665045924015 456.4116993168788Q1143.612275360037 456.73925790182994 1146.2764185176397 456.73925790182994L1146.2764185176397 456.73925790182994Q1153.526381864559 456.73925790182994 1158.003015858892 452.63385697044185Q1162.4796498532246 448.5502932780505 1164.9909323378506 441.80258642805626L1164.9909323378506 441.80258642805626L1169.4020546151928 430.62192006172273ZM1256.9693829921412 420.5767901232199L1256.9693829921412 420.5767901232199Q1260.1139454076724 420.5767901232199 1263.4113684961812 420.0090219093045Q1266.7306288236864 419.4630909343859 1268.7614920503834 418.8298110034803L1268.7614920503834 418.8298110034803L1268.7614920503834 429.37719743890824Q1266.5559309117125 430.4690593887455 1262.4723672193209 431.18968827563805Q1258.3888035269297 431.8884799235339 1254.6109611804927 431.8884799235339L1254.6109611804927 431.8884799235339Q1248.0161150034755 431.8884799235339 1242.4257818203087 429.6174070678724Q1236.857285876139 427.3244969732142 1233.3851648756563 421.66865207305716Q1229.9348811141708 416.0128071729002 1229.9348811141708 405.7929793224234L1229.9348811141708 405.7929793224234L1229.9348811141708 356.7247032967369L1217.989911382951 356.7247032967369L1217.989911382951 350.1298571197199L1230.087741787148 344.62687289254006L1235.5907260143276 326.6984996762123L1243.7578533991104 326.6984996762123L1243.7578533991104 346.0462934273285L1268.1282121194781 346.0462934273285L1268.1282121194781 356.7247032967369L1243.7578533991104 356.7247032967369L1243.7578533991104 405.46542073747224Q1243.7578533991104 413.17396610332327 1247.470184028557 416.86445949377327Q1251.1606774190068 420.5767901232199 1256.9693829921412 420.5767901232199ZM1318.1354894220244 344.4740122195629L1318.1354894220244 344.4740122195629Q1328.9885972034072 344.4740122195629 1336.762654286248 349.19085584285983Q1344.5585486080863 353.90769946615677 1348.7076240174679 362.4678971528809Q1352.8785366658462 371.0499320786018 1352.8785366658462 382.514482551893L1352.8785366658462 382.514482551893L1352.8785366658462 390.8563078486497L1295.1845512364453 390.8563078486497Q1295.4902725824 405.1596993915178 1302.5000263003549 412.62803512840463Q1309.4879427793135 420.0963708652915 1322.0661924414385 420.0963708652915L1322.0661924414385 420.0963708652915Q1330.0804591532442 420.0963708652915 1336.3040722673168 418.6114386135128Q1342.505848142392 417.10466912273745 1349.1006943194093 414.28766529215727L1349.1006943194093 414.28766529215727L1349.1006943194093 426.3854956963541Q1342.6587088153692 429.224336765931 1336.3695839843067 430.55640834473246Q1330.0804591532442 431.8884799235339 1321.4329125105332 431.8884799235339L1321.4329125105332 431.8884799235339Q1309.4879427793135 431.8884799235339 1300.2944651616835 427.01877562725974Q1291.100987544054 422.1490713309856 1285.9910736188158 412.4751744554274Q1280.881159693577 402.8012775798693 1280.881159693577 388.8036073829556L1280.881159693577 388.8036073829556Q1280.881159693577 374.9806350980159 1285.5106543608872 365.0665285934936Q1290.1401490281974 355.15242208897126 1298.5693232809408 349.8241357737654Q1306.976660294688 344.4740122195629 1318.1354894220244 344.4740122195629ZM1317.9826287490473 355.78570201987685L1317.9826287490473 355.78570201987685Q1308.068522244525 355.78570201987685 1302.325328388381 362.1621758069265Q1296.6039717712338 368.5168123549793 1295.4902725824 379.8503393942901L1295.4902725824 379.8503393942901L1338.422284450001 379.8503393942901Q1338.2694237770238 369.1500922858849 1333.3778822417526 362.4678971528809Q1328.5081779454786 355.78570201987685 1317.9826287490473 355.78570201987685ZM1429.1341752424805 407.03770194523787L1429.1341752424805 407.03770194523787Q1429.1341752424805 419.31023026140866 1420.0280465808378 425.5993550924713Q1410.9000806801982 431.8884799235339 1395.4829899484962 431.8884799235339L1395.4829899484962 431.8884799235339Q1386.6825826328077 431.8884799235339 1380.3279460847548 430.4690593887455Q1373.9514722977055 429.04963885395705 1369.081768001431 426.5383563693313L1369.081768001431 426.5383563693313L1369.081768001431 413.9601067072061Q1374.1043329706827 416.4713891918318 1381.2669473616147 418.6114386135128Q1388.4077245135509 420.7296507961971 1395.8105485334472 420.7296507961971L1395.8105485334472 420.7296507961971Q1406.3360977298785 420.7296507961971 1411.0529413531754 417.34487875170163Q1415.7697849764722 413.9601067072061 1415.7697849764722 408.3042618070491L1415.7697849764722 408.3042618070491Q1415.7697849764722 405.1596993915178 1414.0446430957295 402.6484169068921Q1412.3195012149868 400.1371344222664 1407.8428672206537 397.60401469864394Q1403.3443959873243 395.09273221401827 1395.0244079295644 391.94816979848696L1395.0244079295644 391.94816979848696Q1386.8354433057848 388.8036073829556 1381.0267377326509 385.65904496742434Q1375.2180321595165 382.514482551893 1372.0734697439852 378.1251975135472Q1368.928907328454 373.7140752362047 1368.928907328454 366.79167047423647L1368.928907328454 366.79167047423647Q1368.928907328454 356.11326060482804 1377.6419656881553 350.2827177926971Q1386.3768612868535 344.4740122195629 1400.527392156744 344.4740122195629L1400.527392156744 344.4740122195629Q1408.2359375225951 344.4740122195629 1414.9181326555995 345.95894447134157Q1421.6003277886034 347.4657139621169 1427.4090333617378 350.1298571197199L1427.4090333617378 350.1298571197199L1422.6921897384404 361.13582557407943Q1417.3420661842379 358.9302644354082 1411.533360611104 357.35798322764253Q1405.7028177989728 355.78570201987685 1399.5883908798842 355.78570201987685L1399.5883908798842 355.78570201987685Q1391.0937049101503 355.78570201987685 1386.6170709158177 358.5371941334668Q1382.118599682488 361.28868624705666 1382.118599682488 366.00552987035366L1382.118599682488 366.00552987035366Q1382.118599682488 369.4776508708361 1384.1713001481821 371.90158439947487Q1386.2240006138763 374.3473551671103 1391.0063559541632 376.6184280227718Q1395.8105485334472 378.91133811743003 1403.8248152452525 382.05590053296135L1403.8248152452525 382.05590053296135Q1411.8390819570582 385.0257650365187 1417.4949268572154 388.17032745205Q1423.172608996369 391.3148898675813 1426.1424734999264 395.81336110091087Q1429.1341752424805 400.2899950952436 1429.1341752424805 407.03770194523787Z " fill="#6b778d" transform="matrix(0.6122588695074456,0,0,0.6122588695074455,0,59.35110195639493)"/></g></svg>